<svg xmlns:xlink="http://www.w3.org/1999/xlink" xmlns="http://www.w3.org/2000/svg" aria-hidden="true" focusable="false" class="icon-rijks-logo " width="335"  height="40" ><defs><symbol viewBox="0 0 335 40" id="icon-rijks-logo">
  <g fill="#FFF" fill-rule="evenodd">
    <path d="M155.5597 12.5267c-.9272 1.651-1.859 3.4654-2.5685 5.1157h-.0546c-.711-1.6503-1.6406-3.4646-2.5693-5.1157L143.8589.7572h-7.327v38.5023h6.3975V15.938c0-2.2556-.1085-4.2349-.437-6.05l.1092-.055c.5471 1.7053 1.3682 3.409 2.46 5.389l5.358 9.5712h5.0855l5.3579-9.5712c1.0934-1.98 1.9137-3.6845 2.4608-5.389l.1085.055c-.3278 1.8151-.4363 3.7952-.4363 6.05v23.3223h6.3983V.7572h-7.3278l-6.5068 11.7695zM327.6341.7572l-6.5075 11.7695c-.9296 1.651-1.8591 3.4654-2.5701 5.1157h-.0539c-.711-1.6503-1.6405-3.4646-2.57-5.1157L309.4266.7572h-7.327v38.5023h6.3959V15.938c0-2.2556-.1085-4.2349-.4379-6.05l.11-.055c.5472 1.7053 1.3675 3.409 2.4601 5.389l5.3603 9.5712h5.0847l5.3603-9.5712c1.0918-1.98 1.9113-3.6845 2.4576-5.389l.1101.055c-.3278 1.8151-.4363 3.7952-.4363 6.05v23.3223h6.396V.7572h-7.3263zM288.649 25.7832c0 5.6104-2.6255 7.7553-7.327 7.7553-4.704 0-7.3287-2.145-7.3287-7.7553V.7572h-6.4513v25.355c0 10.01 5.3587 13.8068 13.78 13.8068 8.4188 0 13.7783-3.7968 13.7783-13.8069V.7572h-6.4513v25.026zM197.4997 25.7832c0 5.6104-2.624 7.7553-7.327 7.7553-4.704 0-7.3286-2.145-7.3286-7.7553V.7572h-6.4514v25.355c0 10.01 5.3587 13.8068 13.78 13.8068 8.4189 0 13.7768-3.7968 13.7768-13.8069V.7572h-6.4498v25.026zM79.0677 19.1828L93.6117.977V.7572h-8.038L73.2164 16.6524V.7572h-6.4513v38.5023h6.4513V21.9872L86.12 39.2595h8.0388v-.2198L79.0677 19.2935zM239.5466 39.2595h22.3073v-6.1599h-15.8552V22.3735h15.255v-6.1607h-15.255V6.917h15.8552V.7572h-22.3073zM112.037 17.4776l-3.118-1.1c-3.1157-1.0991-5.4672-2.1998-5.4672-5.1699 0-3.6853 3.3903-4.841 6.9438-4.841 3.719 0 6.89 1.2649 8.9676 2.5854h.2193V2.4075C117.7773 1.196 114.3877.0977 110.451.0977c-7.327 0-13.6683 3.7403-13.6683 11.4406 0 6.1057 3.4434 8.856 8.6374 10.6711l3.118 1.1c3.1164 1.1007 5.4672 2.2006 5.4672 5.1707 0 3.6852-3.3912 5.1699-7.1085 5.1699-3.8266 0-7.7095-1.5396-10.0048-2.97h-.2201v6.601c1.9137 1.319 5.8511 2.6396 10.1702 2.6396 7.9288 0 13.8354-4.3456 13.8354-11.771-.0008-6.1074-3.4466-8.8577-8.6406-10.672zM224.6748 17.4776l-3.118-1.1c-3.1164-1.0991-5.468-2.1998-5.468-5.1699 0-3.6853 3.3896-4.841 6.9447-4.841 3.7158 0 6.8892 1.2649 8.966 2.5854h.2193V2.4075c-1.8044-1.2114-5.1956-2.3098-9.1283-2.3098-7.3302 0-13.6723 3.7403-13.6723 11.4406 0 6.1057 3.4442 8.856 8.6382 10.6711l3.1164 1.1c3.1188 1.1007 5.468 2.2006 5.468 5.1707 0 3.6852-3.3896 5.1699-7.1077 5.1699-3.829 0-7.7103-1.5396-10.0072-2.97h-.2177v6.601c1.9129 1.319 5.852 2.6396 10.1694 2.6396 7.9288 0 13.8346-4.3456 13.8346-11.771.0008-6.1074-3.4426-8.8577-8.6374-10.672zM51.5632 26.4427c0 5.1157-2.9525 7.0966-7.5464 7.0966-3.8812 0-7.3254-1.264-10.6057-2.97h-.2193v6.6003c2.7886 1.5412 6.5622 2.751 11.046 2.751 9.1306 0 13.7783-5.005 13.7783-13.0359V.7572h-6.453v25.6855z"></path>
    <path d="M33.1918.7572h6.4521v23.9269h-6.4521zM25.3738 12.9114c0-9.185-5.7965-12.1542-14.2162-12.1542H.1124v38.5023H6.563V24.958h4.156c1.5851 0 2.7886-.0533 3.7181-.2747l5.6873 14.5762h6.943v-.2198l-6.7252-16.2258c3.0633-1.706 5.0316-4.7868 5.0316-9.9025zm-15.091 6.0516H6.563V6.8622h3.9367c4.8115 0 8.2011 1.2098 8.2011 6.0492.0008 4.8425-3.3896 6.0516-8.418 6.0516z"></path>
  </g>
</symbol></defs><use xlink:href="#icon-rijks-logo" href="#icon-rijks-logo" fill="#FFFFFF"></use></svg>